<svg width="476" height="476" viewBox="0 0 476 476" fill="none" xmlns="http://www.w3.org/2000/svg">
<g clip-path="url(#clip0)">
<path d="M438.536 146.177H36.547C31.595 146.177 27.312 147.984 23.697 151.601C20.08 155.216 18.273 159.499 18.273 164.448V438.532C18.273 443.48 20.08 447.765 23.697 451.379C27.312 454.996 31.595 456.807 36.547 456.807H438.536C443.485 456.807 447.765 454.996 451.383 451.379C454.997 447.766 456.804 443.481 456.804 438.532V164.448C456.804 159.496 455.004 155.217 451.383 151.601C447.769 147.984 443.485 146.177 438.536 146.177ZM286.927 232.113C283.314 235.729 279.029 237.537 274.08 237.537H200.991C196.045 237.537 191.762 235.728 188.144 232.113C184.529 228.496 182.72 224.215 182.72 219.263C182.72 214.315 184.529 210.032 188.144 206.416C191.761 202.799 196.044 200.99 200.991 200.99H274.087C279.032 200.99 283.314 202.799 286.934 206.416C290.548 210.031 292.355 214.314 292.355 219.263C292.355 224.214 290.544 228.496 286.927 232.113Z" fill="currentcolor"/>
<path d="M469.658 23.695C466.04 20.078 461.76 18.271 456.81 18.271H18.272C13.324 18.271 9.041 20.078 5.425 23.695C1.809 27.31 0 31.593 0 36.542V109.631C0 114.579 1.809 118.86 5.426 122.478C9.042 126.095 13.324 127.902 18.273 127.902H456.804C461.752 127.902 466.037 126.095 469.658 122.478C473.271 118.861 475.078 114.58 475.078 109.631V36.542C475.078 31.59 473.271 27.31 469.658 23.695Z" fill="currentcolor"/>
</g>
<defs>
<clipPath id="clip0">
<rect width="475.078" height="475.077" fill="white"/>
</clipPath>
</defs>
</svg>
