<svg width="451" height="493" viewBox="0 0 451 493" fill="none" xmlns="http://www.w3.org/2000/svg">
<g clip-path="url(#clip0)">
<path d="M340.678 226.804L121.73 7.86C116.666 2.792 109.906 0 102.698 0C95.49 0 88.73 2.792 83.666 7.86L67.542 23.98C57.05 34.484 57.05 51.556 67.542 62.044L251.398 245.9L67.338 429.96C62.274 435.028 59.478 441.784 59.478 448.988C59.478 456.2 62.274 462.956 67.338 468.028L83.462 484.144C88.53 489.212 95.286 492.004 102.494 492.004C109.702 492.004 116.462 489.212 121.526 484.144L340.678 265C345.754 259.916 348.542 253.128 348.526 245.912C348.542 238.668 345.754 231.884 340.678 226.804Z" fill="currentcolor"/>
</g>
<defs>
<clipPath id="clip0">
<rect width="492.004" height="492.004" fill="white" transform="translate(-42)"/>
</clipPath>
</defs>
</svg>
