<svg width="512" height="512" viewBox="0 0 512 512" fill="none" xmlns="http://www.w3.org/2000/svg">
<g clip-path="url(#clip0)">
<path d="M80 117.333C68.224 117.333 58.6667 107.776 58.6667 96V21.3333C58.6667 9.55733 68.224 0 80 0C91.776 0 101.333 9.55733 101.333 21.3333V96C101.333 107.776 91.776 117.333 80 117.333Z" fill="currentcolor"/>
<path d="M181.333 117.333C169.557 117.333 160 107.776 160 96V21.3333C160 9.55733 169.557 0 181.333 0C193.109 0 202.667 9.55733 202.667 21.3333V96C202.667 107.776 193.109 117.333 181.333 117.333Z" fill="currentcolor"/>
<path d="M282.667 117.333C270.891 117.333 261.333 107.776 261.333 96V21.3333C261.333 9.55733 270.891 0 282.667 0C294.443 0 304 9.55733 304 21.3333V96C304 107.776 294.443 117.333 282.667 117.333Z" fill="currentcolor"/>
<path d="M304 48H58.6667C26.24 48 0 74.24 0 106.667V389.333C0 421.76 26.24 448 58.6667 448H216.107L220.8 421.76C222.933 409.813 228.48 399.147 237.013 390.4L362.667 264.96V106.667C362.667 74.24 336.427 48 304 48V48ZM170.667 149.333C182.4 149.333 192 158.933 192 170.667C192 182.4 182.4 192 170.667 192H85.3333C73.6 192 64 182.4 64 170.667C64 158.933 73.6 149.333 85.3333 149.333H170.667ZM234.667 277.333H85.3333C73.6 277.333 64 267.733 64 256C64 244.267 73.6 234.667 85.3333 234.667H234.667C246.4 234.667 256 244.267 256 256C256 267.733 246.4 277.333 234.667 277.333Z" fill="currentcolor"/>
<path d="M267.264 512C263.061 512 258.965 510.336 255.957 507.307C252.267 503.616 250.603 498.368 251.52 493.205L262.827 429.099C263.381 425.877 264.96 422.891 267.264 420.565L425.664 262.187C445.12 242.688 464.235 247.957 474.688 258.411L501.077 284.8C515.648 299.349 515.648 323.029 501.077 337.6L342.677 496C340.373 498.325 337.387 499.883 334.144 500.437L270.037 511.744C269.12 511.915 268.181 512 267.264 512V512ZM331.371 484.693H331.584H331.371Z" fill="currentcolor"/>
</g>
<defs>
<clipPath id="clip0">
<rect width="512" height="512" fill="white"/>
</clipPath>
</defs>
</svg>
