<svg width="512" height="512" viewBox="0 0 512 512" fill="none" xmlns="http://www.w3.org/2000/svg">
<path d="M256 492.17C386.433 492.17 492.17 386.433 492.17 256C492.17 125.567 386.433 19.83 256 19.83C125.567 19.83 19.83 125.567 19.83 256C19.83 386.433 125.567 492.17 256 492.17Z" fill="white"/>
<path d="M256 512C114.853 512 0 397.167 0 256C0 114.853 114.853 0 256 0C397.167 0 512 114.853 512 256C512 397.167 397.167 512 256 512ZM256 39.659C136.705 39.659 39.659 136.705 39.659 256C39.659 375.295 136.705 472.341 256 472.341C375.295 472.341 472.341 375.275 472.341 256C472.341 136.705 375.295 39.659 256 39.659Z" fill="white"/>
<path d="M256 373.193C245.054 373.193 236.17 364.329 236.17 353.363V155.067C236.17 144.121 245.054 135.237 256 135.237C266.946 135.237 275.83 144.121 275.83 155.067V353.363C275.83 364.329 266.946 373.193 256 373.193Z" fill="currentcolor"/>
<path d="M355.148 274.045H156.852C145.906 274.045 137.022 265.161 137.022 254.215C137.022 243.269 145.906 234.385 156.852 234.385H355.148C366.114 234.385 374.978 243.269 374.978 254.215C374.978 265.161 366.114 274.045 355.148 274.045Z" fill="currentcolor"/>
</svg>
