<svg width="409" height="409" viewBox="0 0 409 409" fill="none" xmlns="http://www.w3.org/2000/svg">
<g clip-path="url(#clip0)">
<path d="M124.16 165.673H227.217C252.186 147.696 266.449 120.663 266.449 90.8965C266.48 47.7051 236.097 10.4672 193.779 1.83358C151.462 -6.8 108.914 15.5584 92.0254 55.3088C75.1366 95.0592 88.5727 141.204 124.16 165.673ZM134.183 87.7715H128.354C123.942 87.7715 120.364 84.194 120.364 79.7817C120.364 75.3693 123.942 71.7918 128.354 71.7918H136.836C146.183 42.8051 177.261 26.88 206.248 36.2275C207.239 36.5474 208.222 36.8946 209.193 37.2691C211.885 38.2484 213.848 40.5969 214.331 43.4215C214.819 46.246 213.754 49.1135 211.542 50.9393C209.334 52.7612 206.314 53.2606 203.634 52.2501C203.571 52.2267 203.509 52.2033 203.451 52.1799C184.369 44.8143 162.838 53.3542 153.99 71.7918H198.266C202.678 71.7918 206.256 75.3693 206.256 79.7817C206.256 84.194 202.678 87.7715 198.266 87.7715H150.159C150.108 89.7729 150.206 91.7782 150.459 93.7639H193.272C197.684 93.7639 201.262 97.3414 201.262 101.754C201.262 106.166 197.684 109.744 193.272 109.744H156.206C166.205 125.563 185.992 132.106 203.447 125.364C207.559 123.796 212.166 125.848 213.75 129.956C215.33 134.064 213.294 138.68 209.189 140.275C181.182 151.074 149.683 137.509 138.279 109.744H128.354C123.942 109.744 120.364 106.166 120.364 101.754C120.364 97.3414 123.942 93.7639 128.354 93.7639H134.394C134.218 91.7743 134.148 89.7729 134.187 87.7715H134.183Z" fill="currentcolor"/>
<path d="M371.659 192.12L356.967 190.583C354.443 190.333 352.106 189.143 350.417 187.251L349.5 186.334L348.919 185.172C338.834 165.002 323.903 147.169 304.541 132.161L304.139 131.856L303.784 131.501C301.884 129.605 300.854 127.007 300.936 124.327L300.983 123.465L303.519 100.147C304.752 89.0395 306.031 76.9923 305.606 74.4408L305.548 74.0117C305.54 73.922 305.524 73.8322 305.493 73.7503C304.97 73.5631 304.416 73.4772 303.858 73.4967L303.581 73.4655C300.031 73.3446 293.426 73.9766 281.57 77.5034C285.721 109.935 274.681 142.468 251.651 165.673H255.275C259.688 165.673 263.265 169.25 263.265 173.663C263.265 178.075 259.688 181.653 255.275 181.653H95.9696C91.5572 181.653 87.9797 178.075 87.9797 173.663C87.9797 169.25 91.5572 165.673 95.9696 165.673H99.356C89.4583 155.732 81.6674 143.904 76.4436 130.885C59.8513 143.061 45.7832 158.342 35.0117 175.883L28.0011 189.233C20.8305 204.112 16.4961 219.257 15.4974 233.048V239.891C15.4974 267.953 25.2156 295.122 43.2786 318.467C45.8652 321.421 46.3099 325.677 44.3944 329.099L44.0511 329.754L43.5868 330.308C28.9569 349.37 29.7918 375.173 45.5765 391.812C55.4117 402.295 69.1208 408.279 83.4932 408.365H85.401C99.4925 408.365 112.652 403.426 122.459 394.067L135.076 382.172C136.965 380.323 139.524 379.32 142.169 379.402H143.093L143.995 379.73C169.197 385.703 195.344 386.573 220.885 382.285L221.564 382.398H222.251C224.861 382.195 227.432 383.108 229.328 384.914L238.917 393.751C248.901 403.013 261.865 408.396 275.473 408.935C288.901 409.594 302.107 405.314 312.593 396.903C329.361 383.194 334.507 359.755 325.019 340.287C323.677 338.376 323.338 335.934 324.106 333.729V331.591L326.002 329.305C335.241 319.119 342.946 307.641 348.872 295.231L349.472 293.998L350.46 293.035C352.164 291.147 354.517 289.957 357.049 289.703L371.659 288.166C383.753 286.929 392.964 276.77 393.019 264.614V215.676C392.964 203.519 383.753 193.36 371.659 192.12V192.12Z" fill="currentcolor"/>
</g>
<defs>
<clipPath id="clip0">
<rect width="409" height="409" fill="white"/>
</clipPath>
</defs>
</svg>
