<svg width="512" height="512" viewBox="0 0 512 512" fill="none" xmlns="http://www.w3.org/2000/svg">
<path d="M471.183 0H40.817C18.311 0 0 18.311 0 40.817V471.183C0 493.689 18.311 512 40.817 512H471.182C493.689 512 512 493.689 512 471.183V40.817C512 18.311 493.689 0 471.183 0V0ZM448.908 406.169H411.642C404.994 431.321 382.05 449.92 354.838 449.92C327.626 449.92 304.682 431.32 298.034 406.169H74.58C66.296 406.169 59.58 399.453 59.58 391.169C59.58 382.885 66.296 376.169 74.58 376.169H298.035C304.683 351.017 327.627 332.418 354.839 332.418C382.051 332.418 404.995 351.018 411.643 376.169H448.909C457.193 376.169 463.909 382.885 463.909 391.169C463.909 399.453 457.192 406.169 448.908 406.169V406.169ZM448.908 271H318.548C311.9 296.152 288.956 314.751 261.744 314.751C234.532 314.751 211.588 296.151 204.94 271H74.58C66.296 271 59.58 264.284 59.58 256C59.58 247.716 66.296 241 74.58 241H204.94C211.588 215.848 234.532 197.249 261.744 197.249C288.956 197.249 311.9 215.849 318.548 241H448.908C457.192 241 463.908 247.716 463.908 256C463.908 264.284 457.192 271 448.908 271ZM448.908 135.831H225.452C218.805 160.983 195.861 179.582 168.649 179.582C141.437 179.582 118.493 160.982 111.845 135.831H74.58C66.296 135.831 59.58 129.115 59.58 120.831C59.58 112.547 66.296 105.831 74.58 105.831H111.846C118.494 80.679 141.438 62.08 168.65 62.08C195.862 62.08 218.806 80.68 225.453 105.831H448.909C457.193 105.831 463.909 112.547 463.909 120.831C463.909 129.115 457.192 135.831 448.908 135.831Z" fill="currentcolor"/>
<path d="M168.649 92.079C152.795 92.079 139.897 104.977 139.897 120.83C139.897 136.683 152.795 149.581 168.649 149.581C184.503 149.581 197.4 136.683 197.4 120.83C197.4 104.977 184.503 92.079 168.649 92.079V92.079Z" fill="currentcolor"/>
<path d="M261.744 227.249C245.89 227.249 232.992 240.147 232.992 256C232.992 271.853 245.89 284.751 261.744 284.751C277.598 284.751 290.496 271.853 290.496 256C290.496 240.147 277.598 227.249 261.744 227.249V227.249Z" fill="currentcolor"/>
<path d="M354.839 362.418C338.985 362.418 326.087 375.316 326.087 391.169C326.087 407.022 338.985 419.92 354.839 419.92C370.693 419.92 383.591 407.022 383.591 391.169C383.591 375.316 370.692 362.418 354.839 362.418Z" fill="currentcolor"/>
</svg>
