<svg width="448" height="448" viewBox="0 0 448 448" fill="none" xmlns="http://www.w3.org/2000/svg">
<g clip-path="url(#clip0)">
<path d="M182.725 379.151C182.153 377.629 181.956 376.335 182.15 375.288C182.343 374.248 181.678 373.386 180.153 372.722C178.628 372.058 177.867 371.531 177.867 371.155C177.867 370.775 176.774 370.488 174.583 370.3C172.393 370.109 171.3 370.012 171.3 370.012H167.59H164.45H82.224C69.662 370.012 58.907 365.543 49.96 356.591C41.015 347.645 36.543 336.893 36.543 324.333V123.335C36.543 110.773 41.014 100.022 49.96 91.076C58.907 82.129 69.662 77.654 82.224 77.654H173.585C176.06 77.654 178.006 77.04 179.437 75.8C180.862 74.563 181.812 72.706 182.29 70.232C182.766 67.758 183.053 65.524 183.149 63.525C183.243 61.528 183.197 59.004 183.005 55.959C182.816 52.915 182.721 51.012 182.721 50.247C182.721 47.773 181.816 45.636 180.009 43.824C178.2 42.02 176.06 41.115 173.586 41.115H82.224C59.576 41.115 40.208 49.157 24.123 65.24C8.042 81.323 0 100.688 0 123.338V324.332C0 346.98 8.042 366.35 24.123 382.427C40.208 398.518 59.576 406.56 82.224 406.56H173.589C176.064 406.56 178.011 405.938 179.441 404.706C180.866 403.467 181.816 401.612 182.294 399.135C182.77 396.664 183.057 394.419 183.153 392.428C183.247 390.429 183.201 387.91 183.009 384.865C182.818 381.817 182.725 379.915 182.725 379.151Z" fill="currentcolor"/>
<path d="M442.249 210.989L286.935 55.67C283.321 52.058 279.037 50.246 274.088 50.246C269.139 50.246 264.855 52.058 261.237 55.67C257.62 59.287 255.813 63.574 255.813 68.52V150.746H127.907C122.955 150.746 118.674 152.558 115.057 156.17C111.44 159.787 109.633 164.071 109.633 169.02V278.656C109.633 283.604 111.44 287.888 115.057 291.503C118.678 295.113 122.958 296.93 127.907 296.93H255.814V379.155C255.814 384.1 257.621 388.388 261.238 392.002C264.855 395.619 269.139 397.43 274.089 397.43C279.037 397.43 283.321 395.619 286.936 392.002L442.249 236.69C445.866 233.07 447.674 228.792 447.674 223.842C447.674 218.894 445.866 214.606 442.249 210.989Z" fill="currentcolor"/>
</g>
<defs>
<clipPath id="clip0">
<rect width="447.674" height="447.674" fill="white"/>
</clipPath>
</defs>
</svg>
